<svg width="1052.5" height="745" xmlns="http://www.w3.org/2000/svg">
 <metadata id="metadata4161">image/svg+xml</metadata>
 <g>
  <path id="svg_4" d="m312.75,139.33333c0,0 -221.5,18.33334 -215.75,217.66667c5.75,199.33333 205.75,214.33333 205,214c0.75,0.33333 231.25,-6.33333 225,-218c-6.25,-211.66667 -203.25,-214.66667 -204,-215c0.75,0.33333 -262.25,-96.66667 -1.25,-101.66667c261,-5 712,0 711.25,-0.33333c0.75,0.33333 4.75,682.33333 4,682c0.75,0.33333 -1031.25,6.33333 -1032,6c0.75,0.33333 2.75,-693.66667 2,-694c0.75,0.33333 304.75,6.33333 304,6c280.75,82.33333 1.75,103.33333 1.75,103.33333z" fill-opacity="null" stroke-opacity="null" stroke-width="0" stroke="#000" fill="#fff"/>
  <g id="g4163" transform="matrix(1.25,0,0,-1.25,0,745) ">
   <g id="g4165" transform="scale(0.10000000149011612) ">
    <path fill="#456c91" fill-rule="nonzero" d="m4340.67,2433.77l182.26,0l0,-436.52l3.07,0c24.51,38.8 58.46,69.43 101.86,91.89c43.39,22.47 93.69,33.7 150.87,33.7c44.93,0 89.85,-8.16 134.78,-24.5c44.93,-16.34 85.01,-41.1 120.24,-74.29c35.23,-33.19 63.82,-74.54 85.77,-124.07c21.96,-49.52 32.93,-107.98 32.93,-175.37c0,-57.18 -9.95,-110.28 -29.86,-159.3c-19.91,-49.01 -48,-91.13 -84.25,-126.36c-36.25,-35.23 -79.39,-62.8 -129.42,-82.71c-50.04,-19.91 -104.67,-29.87 -163.89,-29.87c-60.25,0 -115.13,9.45 -164.65,28.34c-49.53,18.89 -91.9,45.95 -127.13,81.18c-35.23,35.23 -62.8,77.86 -82.71,127.9c-19.92,50.03 -29.87,105.68 -29.87,166.94l0,703.04zm404.36,-937.38c67.39,0 121.51,21.18 162.36,63.56c40.84,42.38 61.26,97.26 61.26,164.66c0,67.39 -20.42,122.28 -61.26,164.65c-40.85,42.38 -94.97,63.57 -162.36,63.57c-67.39,0 -121.26,-21.19 -161.59,-63.57c-40.34,-42.37 -60.51,-97.26 -60.51,-164.65c0,-67.4 20.17,-122.28 60.51,-164.66c40.33,-42.38 94.2,-63.56 161.59,-63.56zm1092.08,-39.82l-3.06,0c-22.46,-37.79 -52.59,-67.4 -90.37,-88.84c-37.78,-21.44 -81.69,-32.17 -131.72,-32.17c-43.91,0 -86.28,7.4 -127.14,22.21c-40.84,14.8 -77.09,37.53 -108.75,68.16c-31.64,30.64 -56.92,70.2 -75.81,118.71c-18.89,48.5 -28.33,106.45 -28.33,173.84l0,384.45l182.27,0l0,-384.45c0,-72.5 17.35,-126.1 52.07,-160.82c34.72,-34.72 81.18,-52.08 139.38,-52.08c56.16,0 102.11,17.87 137.85,53.61c35.75,35.73 53.61,88.84 53.61,159.29l0,384.45l182.27,0l0,-730.61c0,-66.37 -9.7,-122.79 -29.1,-169.25c-19.4,-46.46 -46.21,-84.5 -80.41,-114.11c-34.21,-29.61 -74.29,-51.31 -120.24,-65.09c-45.95,-13.79 -94.97,-20.68 -147.04,-20.68c-43.91,0 -85.52,5.1 -124.83,15.31c-39.31,10.22 -75.05,26.04 -107.22,47.49c-32.16,21.44 -59.73,48.5 -82.71,81.18c-22.98,32.67 -39.57,71.47 -49.78,116.4l182.27,0c29.61,-68.41 90.37,-102.62 182.27,-102.62c62.29,0 110.28,16.09 143.98,48.25c33.7,32.16 50.54,85.01 50.54,158.53l0,88.84zm975.68,180.73c0,-52.07 -7.4,-97.77 -22.21,-137.09c-14.81,-39.3 -35.99,-71.73 -63.56,-97.26c-27.57,-25.52 -60.25,-44.67 -98.03,-57.43c-37.78,-12.77 -79.65,-19.15 -125.6,-19.15c-45.95,0 -87.82,6.38 -125.6,19.15c-37.78,12.76 -70.45,31.91 -98.02,57.43c-27.57,25.53 -48.76,57.96 -63.57,97.26c-14.8,39.32 -22.21,85.02 -22.21,137.09l0,718.36l182.27,0l0,-252.73l390.58,0l0,-165.41l-390.58,0l0,-300.22c0,-51.05 11.74,-87.3 35.23,-108.75c23.49,-21.44 54.12,-32.16 91.9,-32.16c37.78,0 68.42,10.46 91.9,31.4c23.49,20.93 35.23,57.44 35.23,109.51l0,19.91l182.27,0l0,-19.91zm277.23,22.98l0,-3.07c12.25,-51.05 37.02,-91.39 74.28,-121c37.28,-29.61 84.5,-44.42 141.69,-44.42c81.69,0 141.42,24 179.21,72l194.51,0c-28.58,-72.5 -75.56,-130.2 -140.91,-173.09c-65.35,-42.88 -142.95,-64.33 -232.81,-64.33c-60.25,0 -115.13,9.96 -164.66,29.87c-49.52,19.91 -92.41,47.48 -128.66,82.71c-36.25,35.23 -64.33,77.35 -84.24,126.36c-19.91,49.02 -29.87,102.12 -29.87,159.3c0,57.18 9.96,110.28 29.87,159.29c19.91,49.02 47.99,91.14 84.24,126.37c36.25,35.23 79.14,62.79 128.66,82.71c49.53,19.91 104.41,29.86 164.66,29.86c59.22,0 113.85,-9.95 163.89,-29.86c50.03,-19.92 92.66,-47.48 127.89,-82.71c35.23,-35.23 62.8,-77.35 82.71,-126.37c19.91,-49.01 29.87,-102.11 29.87,-159.29l0,-64.33l-620.33,0zm215.97,297.14c-54.12,0 -99.31,-13.27 -135.56,-39.83c-36.25,-26.54 -61.52,-62.79 -75.81,-108.74l0,-3.06l422.74,0l0,3.06c-14.3,45.95 -39.82,82.2 -76.59,108.74c-36.75,26.56 -81.68,39.83 -134.78,39.83" id="path4167"/>
    <path fill="#456c91" fill-rule="evenodd" d="m2520.15,4949.57c1000.35,0 1811.6,-811.25 1811.6,-1811.6c0,-1000.34 -811.25,-1811.6 -1811.6,-1811.6c-1000.35,0 -1811.603,811.26 -1811.603,1811.6c0,1000.35 811.253,1811.6 1811.603,1811.6zm0,-197.97c891.03,0 1613.62,-722.6 1613.62,-1613.63c0,-891.03 -722.59,-1613.63 -1613.62,-1613.63c-891.03,0 -1613.63,722.6 -1613.63,1613.63c0,891.03 722.6,1613.63 1613.63,1613.63" id="path4169"/>
   </g>
  </g>
 </g>
</svg>